<?xml version="1.0"?>
<svg width="97" height="46" viewBox="0 0 97 46" fill="none" xmlns="http://www.w3.org/2000/svg">
  <g>
    <path fill-rule="evenodd" clip-rule="evenodd"
          d="M19.5 4C12.0442 4 6 10.0442 6 17.5C6 24.9558 12.0442 31 19.5 31H42.6165L48.8388 38L55.061 31H77.5C84.956 31 91 24.9558 91 17.5C91 10.0442 84.956 4 77.5 4H19.5Z"
          stroke-width="6" stroke="#80c342"/>
  </g>
  <g>
    <path fill-rule="evenodd" clip-rule="evenodd"
          d="M19.5 4C12.0442 4 6 10.0442 6 17.5C6 24.9558 12.0442 31 19.5 31H42.6165L48.8388 38L55.061 31H77.5C84.956 31 91 24.9558 91 17.5C91 10.0442 84.956 4 77.5 4H19.5Z"
          stroke-width="6" stroke="#80c342"/>
    <path fill-rule="evenodd" clip-rule="evenodd"
          d="M19.5 4C12.0442 4 6 10.0442 6 17.5C6 24.9558 12.0442 31 19.5 31H42.6165L48.8388 38L55.061 31H77.5C84.956 31 91 24.9558 91 17.5C91 10.0442 84.956 4 77.5 4H19.5Z"
          fill="white"/>
  </g>
  <svg x="16" y="4" width="30" height="24" viewBox="2 0 20 20" xmlns="http://www.w3.org/2000/svg" fill="#6D6D6D">
    <g>
      <path
        d="M16.7658 5.87206C17.4477 5.92901 18.3002 6.04608 18.1821 5.87206C18.1821 5.87206 17.2996 4.66675 17.9424 4.66675C19.0701 4.66675 19.2836 5.29137 19.386 5.68359C19.4283 5.84537 19.4868 5.98098 19.5603 5.95387C19.8708 5.79413 20.8772 5.68359 21.1455 5.68359C21.5229 5.68359 21.97 6.30895 22.2474 6.71855L22.7907 7.63913C22.9692 7.92095 23.1822 8.29334 23.3899 8.5772C23.4605 8.67373 23.6599 8.86658 23.7385 8.94807C23.9102 9.12605 24 9.34907 24 9.59163C24 10.257 22.7991 10.6135 22.4202 10.3879C20.7937 10.8072 20.2805 10.1919 19.8144 10.6191C19.4658 11.1863 19.0232 11.671 18.7949 12.2046C18.5534 12.769 17.9587 14.0253 17.668 14.3007C17.1203 14.6299 17.142 14.093 17.2074 15.1803C17.314 16.9551 17.4332 18.896 17.4332 18.896H16.7987C16.4441 18.896 16.1414 18.64 16.0834 18.2897L15.565 14.9479C15.5043 14.5829 15.4147 14.5829 15.0459 14.5829H15.042C15.042 14.5829 11.1414 15.2077 9.79989 15.4764C9.15435 15.6057 7.33818 14.4408 6.49301 13.9917C6.3593 13.9485 6.0107 13.8001 5.90049 13.7637C5.19741 13.5317 5.08497 13.4542 4.30632 13.4542C3.96856 13.4542 3.38089 14.2941 3.19662 14.6733C3.15735 14.7541 3.12141 14.828 3.08875 14.8885C2.71817 15.7588 2.38753 16.9666 2.38753 18.8305H1.85961C1.4593 18.8305 1.12017 18.4674 1.12017 18.067V14.8885L1.12017 14.8794C1.12014 14.6572 1.12011 14.3611 1.23861 14.093C1.45251 13.6091 1.94677 12.8379 1.94677 11.5768C1.94677 10.6347 1.48277 9.69138 1.12017 8.83899V11.7077C1.12017 12.6673 0.394953 13.0276 0.394953 13.0276C0.394953 13.0276 0 12.7252 0 11.7881C0 11.3877 0.216786 10.9416 0.617105 10.9416L0.394953 7.32826C0.394953 6.64358 1.10295 5.84083 1.91954 5.84083H15.4587C15.9024 5.84083 16.3506 5.83739 16.7658 5.87206Z"/>
      <path
        d="M13.7405 18.0747L13.9519 15.3085L15.052 15.08L15.2398 16.0475L14.862 18.681H14.5249C14.066 18.681 13.7405 18.3974 13.7405 18.0747Z"/>
      <path
        d="M4.45788 18.6656H4.98247C4.77827 18.2729 4.7937 15.7124 5.10642 14.3705C4.41364 14.0185 4.27002 14.2344 4.25266 14.2671C4.23529 14.2998 3.72999 15.2079 3.58189 15.4764C3.50276 15.6198 3.42281 15.8929 3.39246 16.0477C3.38413 16.0793 3.38576 16.1794 3.42281 16.3054L3.85335 18.0567C3.93503 18.4109 4.05452 18.6656 4.45788 18.6656Z"/>
    </g>
  </svg>
  <text x="50" y="24" style="font-family:sans-serif;font-size:20px;fill:black;font-weight:bold;">5</text>
  <symbol>
    <svg fill="none" xmlns="http://www.w3.org/2000/svg">
      <path id="spin-indicator"
            d="M16.8317 1V3.94231C9.64453 4.61148 4 10.6391 4 18C4 21.8362 5.52224 25.2996 8.00481 27.8486L11.5601 24.6611C9.84886 22.96 8.78125 20.6001 8.78125 18C8.78125 13.28 12.2855 9.36719 16.8317 8.72356V11.4615L25.2091 6.23077L16.8317 1ZM28.274 8.15144L24.7596 11.3389C26.4708 13.04 27.4976 15.405 27.4976 18C27.4976 22.7251 23.9985 26.5971 19.4471 27.2356V24.5385L11.0697 29.7692L19.4471 35V32.0577C26.6343 31.3885 32.2788 25.3609 32.2788 18C32.2788 14.1638 30.7566 10.7004 28.274 8.15144Z"
            fill="#52C41A"/>
    </svg>
  </symbol>
  <svg x="63" y="5"  width="25" height="25" viewBox="0 0 36 36">
    <use href="#spin-indicator"></use>
  </svg>
</svg>
