<?xml version="1.0"?>
<svg width="36" height="36" viewBox="0 0 36 36" fill="none" xmlns="http://www.w3.org/2000/svg">
  <path d="M16.8317 1V3.94231C9.64453 4.61148 4 10.6391 4 18C4 21.8362 5.52224 25.2996 8.00481 27.8486L11.5601 24.6611C9.84886 22.96 8.78125 20.6001 8.78125 18C8.78125 13.28 12.2855 9.36719 16.8317 8.72356V11.4615L25.2091 6.23077L16.8317 1ZM28.274 8.15144L24.7596 11.3389C26.4708 13.04 27.4976 15.405 27.4976 18C27.4976 22.7251 23.9985 26.5971 19.4471 27.2356V24.5385L11.0697 29.7692L19.4471 35V32.0577C26.6343 31.3885 32.2788 25.3609 32.2788 18C32.2788 14.1638 30.7566 10.7004 28.274 8.15144Z" fill="#52C41A"/>
</svg>
